<?xml version="1.0" encoding="UTF-8" standalone="no"?>
<!-- Created with Inkscape (http://www.inkscape.org/) -->

<svg
   version="1.1"
   id="svg124"
   width="220"
   height="240"
   viewBox="-4 -5 220 240"
   xmlns="http://www.w3.org/2000/svg"
   xmlns:svg="http://www.w3.org/2000/svg">
  <defs
     id="defs128" />
  <g
     id="layer1"
     transform="translate(-4.2021044,-116.8223)">
    <g
       id="layer2">
      <g
         id="g8966">
        <path
           style="display:inline;fill:#800000;fill-opacity:1;stroke:#000000;stroke-width:1;stroke-dasharray:none;stroke-opacity:1"
           d="m 39.699491,193.74185 c 3.662246,6.03933 7.020255,10.78715 25.856166,19.71398 -19.832028,12.52358 -39.664056,26.19259 -59.4960845,32.01753 5.9746215,1.5853 10.6243385,3.9061 21.9760395,2.50634 -5.258463,7.08474 -13.014797,10.42017 -20.9706508,13.45611 9.5494508,0.31913 18.8358628,0.89445 32.9708858,-3.25266 l -14.361292,10.73135 31.588956,-0.24377 c 12.460153,9.76542 49.590629,21.20117 76.278339,77.39941 7.94084,-15.10569 16.55139,-24.13826 22.91404,-53.55563 15.43528,10.14125 32.42656,8.32196 49.89095,2.86599 l 4.15566,8.63813 c 4.32336,-9.65797 13.88478,-23.0101 -10.59026,-61.08043 -5.79355,-20.97927 10.64465,-40.14842 -57.81879,-67.79044 -23.52724,-12.06453 -39.9299,-27.55887 -50.896793,-45.67003 L 91.60747,152.2652 65.135577,118.55022 c 1.720164,13.69275 5.079532,27.3855 13.811019,41.07825 l -21.85175,-20.29266 c -0.563329,8.93498 -1.5997,17.75479 17.471652,31.47011 l -24.103002,-14.0436 c 1.369456,9.78655 6.602188,18.17175 14.058201,27.95829 l -15.786594,-6.84687 c 3.794044,7.4084 7.340095,14.8168 14.277658,22.2252 z"
           id="path2159" />
        <path
           style="fill:#808080;fill-opacity:1;stroke:#000000;stroke-width:1.2;stroke-dasharray:none;stroke-opacity:1"
           d="m 159.53987,255.35298 7.5454,-6.69536 17.67591,6.58286 15.24894,-11.85372 c 15.85182,20.27051 20.8474,41.91688 10.55587,59.86925 l -4.31786,-9.54099 C 185.696,280.99535 176.60455,270.42676 159.53987,255.35298 Z"
           id="path8778" />
        <path
           style="display:inline;fill:#000000;fill-opacity:1;stroke:#000000;stroke-width:1;stroke-dasharray:none;stroke-opacity:1"
           d="m 110.70028,177.03998 c 14.27686,4.59283 55.63786,13.67526 78.82645,57.22089 l 9.8733,8.68656 c -14.85827,22.23829 -25.28227,15.59546 -32.47129,5.81192 l -6.75876,5.98921 c -6.31437,-3.63959 -11.62704,-6.55397 -14.02671,10.88428 l 1.22183,21.91277 -4.45745,-3.2037 c -4.04787,10.30639 -12.39461,13.0229 -19.30501,15.71927 3.34546,-3.56129 6.64495,-7.14127 6.32825,-12.191 -8.34032,-1.4675 -21.07583,3.05494 -25.02097,-4.4025 3.35216,-3.01435 9.34053,-4.21038 8.0454,-10.43019 l -13.731881,-2.67935 0.556111,-6.72469 -4.715043,-1.31228 0.188256,-9.76036 9.339787,-2.94349 6.83908,4.44615 7.32744,-0.41929 1.4675,-13.86503 c 3.99067,0.21658 7.43107,0.34076 13.65442,0.93227 -2.57671,-3.00405 -6.85376,-5.02226 -12.2911,-6.36775 l -1.74963,-3.75679 4.31017,-0.68257 0.25844,-1.95265 c 5.93804,2.39756 10.77578,5.05657 22.44319,6.09268 -12.85417,-13.62091 -17.13112,-15.83404 -25.52642,-22.78417 12.15199,4.45279 29.10527,13.5761 34.31745,11.27808 -9.5435,-27.17514 -28.98123,-32.49808 -44.94285,-45.49827 z"
           id="path2983" />
        <path
           style="fill:#808080;fill-opacity:1;stroke:#000000;stroke-width:1.2;stroke-dasharray:none;stroke-opacity:1"
           d="m 146.56432,286.75386 c 26.98554,18.25658 46.10831,12.59153 59.32822,8.05335 l -26.96626,-17.66679 c -9.30422,-6.75118 -20.04418,-9.26975 -32.30605,-9.42436 z"
           id="path8344" />
        <path
           style="display:inline;fill:#ffff00;fill-opacity:0.997625;stroke:#0b0b0b;stroke-width:1;stroke-dasharray:none;stroke-opacity:1"
           d="m 167.02551,248.83084 -7.50913,6.25939 c -14.77609,-9.81375 -10.92068,16.23027 -13.61672,29.85788 -23.67157,-15.21034 -7.22633,-63.34529 21.12585,-36.11727 z"
           id="path5836" />
        <g
           id="Bolt-3"
           style="display:inline"
           transform="matrix(0.75308497,0,0,0.75308497,-7.7698065,53.794766)">
          <path
             style="fill:#000000;fill-opacity:0.997625;stroke:#000000;stroke-width:1;stroke-dasharray:none;stroke-opacity:1"
             id="path4389-3-2"
             d="m 210.24328,283.5625 -4.3201,-0.0554 -1.28228,-4.12578 3.52761,-2.49446 3.46246,2.58412 z"
             transform="matrix(1.1397015,0,0,1.1397015,-25.647178,-28.201128)" />
          <rect
             style="fill:#808080;fill-opacity:0.000408696;stroke:#808080;stroke-width:1;stroke-dasharray:none;stroke-opacity:1"
             id="rect4445-5-9"
             width="3.5246313"
             height="0.58663589"
             x="209.82077"
             y="291.19614" />
        </g>
        <path
           style="display:inline;fill:#ffff00;fill-opacity:0.997625;stroke:#808080;stroke-width:1;stroke-dasharray:none;stroke-opacity:1"
           d="m 159.34711,218.26539 c 9.12483,7.99913 18.3886,16.04607 26.05901,23.54478 -5.25151,-0.33188 -10.67718,-0.12658 -15.13066,-2.91986 -2.76927,-2.18558 -1.76609,-11.37632 -10.92835,-20.62492 z"
           id="Eye" />
        <g
           id="Bolt-1"
           style="display:inline"
           transform="matrix(0.80136179,0,0,0.80136179,26.613004,61.173758)">
          <path
             style="fill:#000000;fill-opacity:0.997625;stroke:#000000;stroke-width:1;stroke-dasharray:none;stroke-opacity:1"
             id="path4389-3"
             d="m 210.24328,283.5625 -4.3201,-0.0554 -1.28228,-4.12578 3.52761,-2.49446 3.46246,2.58412 z"
             transform="matrix(1.1397015,0,0,1.1397015,-27.204273,-30.117246)" />
          <rect
             style="fill:#808080;fill-opacity:0.000408696;stroke:#808080;stroke-width:1;stroke-dasharray:none;stroke-opacity:1"
             id="rect4445-5"
             width="3.5246313"
             height="0.58663589"
             x="208.26367"
             y="289.28003" />
        </g>
        <g
           id="Bolt-2"
           style="display:inline"
           transform="matrix(0.83839429,0,0,0.83839429,34.300315,48.015051)">
          <path
             style="fill:#000000;fill-opacity:0.997625;stroke:#000000;stroke-width:1;stroke-dasharray:none;stroke-opacity:1"
             id="path4389"
             d="m 210.24328,283.5625 -4.3201,-0.0554 -1.28228,-4.12578 3.52761,-2.49446 3.46246,2.58412 z"
             transform="matrix(1.1397015,0,0,1.1397015,-27.204273,-30.117246)" />
          <rect
             style="fill:#808080;fill-opacity:0.000408696;stroke:#808080;stroke-width:1;stroke-dasharray:none;stroke-opacity:1"
             id="rect4445"
             width="3.5246313"
             height="0.58663589"
             x="208.26367"
             y="289.28003" />
        </g>
        <g
           id="Bolt-4"
           style="display:inline"
           transform="matrix(0.81776384,0,0,0.82178115,-5.1547456,17.357998)">
          <g
             id="g8901">
            <path
               style="fill:#000000;fill-opacity:0.997625;stroke:#000000;stroke-width:1;stroke-dasharray:none;stroke-opacity:1"
               id="path4389-3-2-2"
               d="m 210.24328,283.5625 -4.3201,-0.0554 -1.28228,-4.12578 3.52761,-2.49446 3.46246,2.58412 z"
               transform="matrix(1.1397015,0,0,1.1397015,-27.204273,-30.117246)" />
            <rect
               style="fill:#808080;fill-opacity:0.000408696;stroke:#808080;stroke-width:1;stroke-dasharray:none;stroke-opacity:1"
               id="rect4445-5-9-7"
               width="3.5246313"
               height="0.58663589"
               x="208.26367"
               y="289.28003" />
          </g>
        </g>
      </g>
    </g>
    <g
       id="layer3">
      <path
         style="fill:#000000;fill-opacity:1;stroke:#000000;stroke-width:1;stroke-dasharray:none;stroke-opacity:1"
         d="m 206.50801,293.81591 c -18.28946,-13.00355 -42.32718,-31.36292 -48.23672,-38.95009 -6.87024,-6.76077 -11.66159,4.44492 -11.82028,13.52128 23.96803,-0.0559 39.5402,13.14838 60.057,25.42881 z"
         id="path5920" />
      <path
         style="display:inline;fill:#ffffff;fill-opacity:1;stroke:none;stroke-width:1;stroke-dasharray:none;stroke-opacity:1"
         d="m 161.81647,269.01279 5.69875,-4.41122 -4.33985,-3.62529 -8.62171,6.84144 c 1.63695,-0.0218 3.80243,0.23961 7.26281,1.19507 z"
         id="path7411" />
      <path
         style="display:inline;fill:#ffffff;fill-opacity:1;stroke:none;stroke-width:1;stroke-dasharray:none;stroke-opacity:1"
         d="m 148.35461,264.84851 10.04011,-8.52277 c -5.46195,-6.62725 -11.79878,6.11913 -10.04011,8.52277 z"
         id="path7353" />
      <path
         style="display:inline;fill:#ffffff;fill-opacity:1;stroke:none;stroke-width:1;stroke-dasharray:none;stroke-opacity:1"
         d="m 148.9339,265.80583 4.59761,1.5616 9.1659,-6.94957 -3.56285,-3.3478 z"
         id="path7409" />
    </g>
    <path
       style="display:inline;fill:#666666;fill-opacity:1;stroke:#000000;stroke-width:1;stroke-dasharray:none;stroke-opacity:1"
       d="m 95.772526,207.82926 v -5.54989 l 9.105164,0.39614 0.20964,4.84196 c 8.91427,2.93935 11.07484,8.68423 13.34297,14.38442 l 5.97272,-0.52114 -0.33308,8.7806 -3.39442,0.41929 -1.16428,23.36597 -7.47419,0.4522 -7.10796,-4.16018 -4.24675,3.97654 -0.67633,6.31194 0.17711,3.23574 c -1.857236,13.03115 -0.0785,24.52487 1.37711,36.02709 -13.516641,-12.294 -29.272867,-21.45862 -44.447234,-30.80756 9.19474,-9.67883 19.460329,-17.92207 25.350963,-32.03042 -3.178137,-1.7243 -3.499996,-4.12317 -3.305704,-6.64394 h -5.026882 l -0.401508,-10.99449 7.50488,-0.11018 c 2.517428,-7.58212 7.925335,-10.45859 14.537781,-11.37409 z"
       id="path2148" />
    <ellipse
       style="display:inline;fill:#000000;fill-opacity:1;stroke:#000000;stroke-width:1;stroke-dasharray:none;stroke-opacity:0"
       id="path7779"
       cx="90.560844"
       cy="166.89099"
       rx="2.9131629"
       ry="5.4155679" />
    <path
       style="display:inline;fill:#000000;fill-opacity:1;stroke:#000000;stroke-width:1;stroke-dasharray:none;stroke-opacity:0"
       d="m 70.224701,223.409 -0.688388,6.77258 -18.171773,4.70028 -14.192926,6.91458 -4.486131,-0.20965 8.024151,-3.55321 10.225448,-3.16009 z"
       id="path7725" />
    <path
       style="display:inline;fill:#000000;fill-opacity:1;stroke:none;stroke-width:1;stroke-dasharray:none;stroke-opacity:1"
       d="m 120.58478,322.87486 26.34364,-35.08422 9.50191,5.54897 c -3.85,20.53959 -13.55173,36.45406 -22.90527,52.42999 z"
       id="path7415" />
    <path
       style="display:inline;fill:#ffffff;fill-opacity:1;stroke:#fefefe;stroke-width:1;stroke-dasharray:none;stroke-opacity:1"
       d="m 163.82293,269.22458 4.2631,-3.60135 12.89278,10.65676 c -5.60587,-3.00775 -11.29793,-5.5141 -17.15588,-7.05541 z"
       id="path7413" />
    <path
       style="display:inline;fill:none;fill-opacity:1;stroke:#000000;stroke-width:1.2;stroke-dasharray:none;stroke-opacity:0.996444"
       d="m 90.439668,209.18868 c -1.525786,-12.64905 -1.859412,-25.31949 0.445855,-36.86835 l -0.0031,-1.22233"
       id="path7785" />
    <circle
       style="fill:#ffff00;stroke:#000000;stroke-width:1;stroke-dasharray:none;stroke-opacity:1"
       id="path291"
       cx="100.27877"
       cy="226.70898"
       r="11.543916" />
    <circle
       style="fill:#000000;fill-opacity:1;stroke:#000000;stroke-width:0.78218;stroke-dasharray:none;stroke-opacity:1"
       id="path291-3"
       cx="104.00932"
       cy="258.91513"
       r="9.029418" />
    <circle
       style="fill:#ffff00;stroke:#000000;stroke-width:0.200318;stroke-dasharray:none;stroke-opacity:0"
       id="path291-0"
       cx="70.897896"
       cy="260.90631"
       r="2.3124528" />
    <circle
       style="fill:#ffff00;stroke:#000000;stroke-width:0.200318;stroke-dasharray:none;stroke-opacity:0"
       id="path291-0-9"
       cx="65.158592"
       cy="267.03796"
       r="2.3124528" />
    <path
       id="path1805"
       style="fill:#666666;stroke:#000000"
       d="m 122.60807,207.14724 -16.54364,-12.41643 -7.872153,-13.90831 22.918053,8.50008 z" />
    <path
       style="display:inline;fill:#000000;fill-opacity:0.997625;stroke:#000000;stroke-width:1;stroke-dasharray:none;stroke-opacity:1"
       d="m 153.94552,248.76014 c -8.73005,-1.9484 -7.9302,1.36509 -9.91216,5.49506 1.57627,-4.01139 4.45844,-5.74166 9.91216,-5.49506 z"
       id="cheek-black" />
  </g>
</svg>
